<svg xmlns="http://www.w3.org/2000/svg" xmlns:xlink="http://www.w3.org/1999/xlink" version="1.1" x="0px" y="0px" viewBox="0, 0, 150, 150" style="max-width:100%" height="100%"><g style="" fill="currentColor"><path d="M102.619,6.442 C104.734,6.442 106.447,8.156 106.447,10.27 L106.447,21.543 L98.791,21.543 L98.791,27.831 C98.791,29.945 100.505,31.659 102.619,31.659 C104.734,31.659 106.447,29.945 106.447,27.831 L106.447,21.543 L123.528,21.543 C124.797,21.543 125.826,22.571 125.826,23.84 L125.825,80.899 C120.4,79.793 123.055,80.115 117.872,79.854 L117.872,79.854 L116.805,79.908 L116.805,47.209 C116.806,45.941 115.778,44.913 114.509,44.912 L114.509,44.912 L13.241,44.912 C11.973,44.913 10.945,45.941 10.945,47.209 L10.945,112.807 C10.945,114.076 11.973,115.104 13.242,115.104 L81.199,115.104 L81.124,116.602 C81.385,121.778 81.063,119.131 82.165,124.534 L5.041,124.534 C3.773,124.534 2.745,123.506 2.745,122.237 L2.745,23.839 C2.745,22.571 3.773,21.543 5.042,21.543 L22.943,21.543 L22.943,10.27 C22.943,8.156 24.657,6.442 26.771,6.442 C28.886,6.442 30.599,8.156 30.599,10.27 L30.599,21.543 L22.943,21.543 L22.943,27.831 C22.943,29.945 24.657,31.659 26.771,31.659 C28.886,31.659 30.599,29.945 30.599,27.831 L30.599,21.543 L98.791,21.543 L98.791,10.27 C98.791,8.156 100.505,6.442 102.619,6.442 z" fill="currentColor" style=""></path><path d="M40.117,84.52 C41.501,84.521 42.623,85.642 42.622,87.026 L42.622,103.73 C42.623,105.114 41.501,106.236 40.117,106.236 L23.413,106.236 C22.029,106.236 20.907,105.114 20.907,103.73 L20.907,87.026 C20.907,85.642 22.029,84.521 23.412,84.52 L40.117,84.52 z" fill="currentColor" style=""></path><path d="M72.913,84.52 C74.298,84.521 75.419,85.642 75.419,87.026 L75.419,103.73 C75.419,105.114 74.298,106.236 72.913,106.236 L56.209,106.236 C54.826,106.236 53.704,105.114 53.704,103.73 L53.704,87.026 C53.704,85.642 54.826,84.521 56.209,84.52 L72.913,84.52 z" fill="currentColor" style=""></path><path d="M40.117,55.63 C41.501,55.63 42.623,56.752 42.622,58.136 L42.622,74.84 C42.623,76.224 41.501,77.346 40.117,77.346 L23.413,77.346 C22.029,77.346 20.907,76.224 20.907,74.84 L20.907,58.136 C20.907,56.752 22.029,55.63 23.412,55.63 L40.117,55.63 z" fill="currentColor" style=""></path><path d="M105.158,55.63 C106.542,55.63 107.663,56.752 107.663,58.136 L107.663,74.84 C107.663,76.224 106.542,77.346 105.158,77.346 L88.454,77.346 C87.07,77.346 85.948,76.224 85.948,74.84 L85.948,58.136 C85.948,56.752 87.07,55.63 88.453,55.63 L105.158,55.63 z" fill="currentColor" style=""></path><path d="M72.913,55.63 C74.298,55.63 75.419,56.752 75.419,58.136 L75.419,74.84 C75.419,76.224 74.298,77.346 72.913,77.346 L56.209,77.346 C54.826,77.346 53.704,76.224 53.704,74.84 L53.704,58.136 C53.704,56.752 54.826,55.63 56.209,55.63 L72.913,55.63 z" fill="currentColor" style=""></path><path d="M117.106,84.702 C134.301,84.702 148.241,98.642 148.241,115.836 C148.241,133.032 134.301,146.971 117.106,146.971 C99.911,146.971 85.972,133.032 85.972,115.836 C85.972,98.642 99.911,84.702 117.106,84.702 z M114.9,90.628 C113.216,90.644 111.863,92.021 111.879,93.705 L111.879,120.44 L111.878,120.442 L111.879,120.443 L111.879,120.47 L111.999,121.04 C112.039,121.236 112.079,121.433 112.118,121.629 C112.121,121.631 112.123,121.633 112.125,121.636 C112.127,121.642 112.128,121.648 112.129,121.654 C112.399,121.92 112.67,122.185 112.94,122.45 C113.207,122.717 113.474,122.984 113.741,123.251 C113.747,123.253 113.753,123.254 113.76,123.255 C113.762,123.258 113.765,123.26 113.767,123.262 C113.963,123.3 114.16,123.338 114.356,123.375 L114.928,123.491 L132.539,123.491 C134.223,123.491 135.589,122.126 135.589,120.442 C135.589,118.758 134.223,117.392 132.539,117.392 L117.977,117.392 L117.977,93.649 C117.962,91.966 116.584,90.613 114.9,90.628 z" fill="currentColor" style=""></path></g></svg>