<svg xmlns="http://www.w3.org/2000/svg" xmlns:xlink="http://www.w3.org/1999/xlink" version="1.1" x="0px" y="0px" viewBox="0 0 48 48" enable-background="new 0 0 48 48" xml:space="preserve" style="max-width:100%" height="100%"><g style="" fill="currentColor"><polygon points="48,43.684 43.685,39.368 43.685,42.684 5.317,42.684 5.317,4.316 8.632,4.316 4.315,0 0,4.316 3.315,4.316    3.315,44.686 43.685,44.686 43.685,48  " style="" fill="currentColor"></polygon><polygon points="24.566,1.469 18.132,10.049 31,10.049  " style="" fill="currentColor"></polygon><polygon points="19.163,39.277 10.065,30.177 8.547,40.796  " style="" fill="currentColor"></polygon><polygon points="40.588,40.795 39.067,30.177 29.969,39.277  " style="" fill="currentColor"></polygon><path d="M24.566,35.854c6.586,0,11.943-5.357,11.943-11.942c0-6.585-5.357-11.943-11.943-11.943s-11.943,5.358-11.943,11.943   C12.623,30.497,17.98,35.854,24.566,35.854z M24.071,24.581c-2.321-0.909-3.755-1.955-3.755-3.937c0-1.89,1.343-3.321,3.438-3.664   v-2.3h1.409v2.209c1.365,0.045,2.3,0.41,2.96,0.796l-0.57,1.501c-0.477-0.271-1.411-0.773-2.867-0.773   c-1.752,0-2.412,1.047-2.412,1.956c0,1.184,0.841,1.776,2.821,2.593c2.346,0.957,3.527,2.142,3.527,4.167   c0,1.798-1.252,3.481-3.594,3.868v2.369h-1.436v-2.301c-1.319-0.021-2.686-0.433-3.482-1l0.548-1.525   c0.819,0.547,2.002,0.979,3.276,0.979c1.616,0,2.706-0.934,2.706-2.23C26.641,26.039,25.756,25.264,24.071,24.581z" style="" fill="currentColor"></path></g></svg>
