<svg xmlns="http://www.w3.org/2000/svg" xmlns:xlink="http://www.w3.org/1999/xlink" version="1.1" x="0px" y="0px" viewBox="0 0 100 100" enable-background="new 0 0 100 100" xml:space="preserve" style="max-width:100%" height="100%"><path d="M57.3,28.4c2.8,0,5.1,2.3,5.1,5.1s-2.3,5.1-5.1,5.1c-2.8,0-5.1-2.3-5.1-5.1S54.5,28.4,57.3,28.4z M35.9,16.8  c2.8,0,5.1-2.3,5.1-5.1c0-2.8-2.3-5.1-5.1-5.1c-2.8,0-5.1,2.3-5.1,5.1C30.8,14.5,33.1,16.8,35.9,16.8z M83.9,11.7  c0-2.8-2.3-5.1-5.1-5.1c-2.8,0-5.1,2.3-5.1,5.1c0,2.8,2.3,5.1,5.1,5.1C81.6,16.8,83.9,14.5,83.9,11.7z M62.5,11.7  c0,0.7-0.1,1.4-0.4,2l14.8,15.1c0.6-0.2,1.2-0.4,1.9-0.4c2.8,0,5.1,2.3,5.1,5.1c0,2.1-1.3,4-3.1,4.7v12.4c1.8,0.8,3.1,2.6,3.1,4.7  c0,2.8-2.3,5.1-5.1,5.1c-2.8,0-5.1-2.3-5.1-5.1c0-2.1,1.3-4,3.1-4.7V38.3c-1.8-0.8-3.1-2.6-3.1-4.7c0-0.7,0.1-1.4,0.4-2L59.2,16.4  c-0.6,0.2-1.2,0.4-1.9,0.4s-1.3-0.1-1.9-0.4L40.5,31.7c0,0.1,0.1,0.2,0.1,0.3c1.5,3.8,2.8,7.6,4.2,11.6c1.2,3.6,2.7,7.1,3.9,10.7  l1.6,4.4c0,0,18.2-1,35.2,9.3c0.9,0.6,1.6,1.5,1.7,2.6c0.7,3.8,2.3,13.5,1.5,23H26.7c-0.6-0.7-1.2-1.3-1.6-1.9  c-3.6-4.5-7.7-8.7-12.4-12.1c-2.1-1.5-2.2-3.1-0.6-5.1c0.8-1,2.6-2,3.9-2.2c3-0.5,5.7,0.6,8.2,1.9c1.5,0.7,7.4,6.4,10.2,8.6  c2.4,1.9,3.6-0.4,4.3-3.4c0.3-1.5,0.2-3,0-4.5c-2.4-13.2-5.2-26.4-7.9-39.8c-0.7-2.9,0.8-5.3,3.5-6.2c1.2-0.3,2.4-0.2,3.4,0.2  l14.9-15.2c-0.3-0.6-0.4-1.3-0.4-2c0-2.8,2.3-5.1,5.1-5.1C60.2,6.5,62.5,8.8,62.5,11.7z M59.7,11.7c0-1.3-1-2.3-2.3-2.3  c-1.3,0-2.3,1-2.3,2.3c0,1.3,1,2.3,2.3,2.3C58.6,14,59.7,12.9,59.7,11.7z M78.8,53.1c-1.3,0-2.3,1-2.3,2.3c0,1.3,1,2.3,2.3,2.3  c1.3,0,2.3-1,2.3-2.3C81.1,54.2,80,53.1,78.8,53.1z M76.4,33.5c0,1.3,1,2.3,2.3,2.3c1.3,0,2.3-1,2.3-2.3c0-1.3-1-2.3-2.3-2.3  C77.5,31.2,76.4,32.3,76.4,33.5z" style="" fill="currentColor"></path></svg>