<svg xmlns="http://www.w3.org/2000/svg" data-name="Layer 1" viewBox="0 0 100 100" x="0px" y="0px" style="max-width:100%" height="100%"><title style="" fill="currentColor">Artboard 4</title><path d="M66.65,84.24H.79V75a6.66,6.66,0,0,1,2.47-5.14,106.24,106.24,0,0,1,17-11.15c.38.89,4,9.24,6.43,13a.33.33,0,0,0,.59-.08c.59-1.72,2.4-6.19,5.07-6a.23.23,0,0,0,.14-.42c-2.24-1.78-7.59-6.13-9.65-8.57V50.59a15,15,0,0,1-1.87-5.12c-.72-.06-1.66-1.06-2.67-4.65-1.28-4.53-.12-5.5,1-5.52-.11-.39-.21-.79-.28-1.18h0a14.37,14.37,0,0,1,0-6.46A14.07,14.07,0,0,1,22.76,21a18.15,18.15,0,0,1,3.49-2.89,13.59,13.59,0,0,1,3.39-1.74h0a11.24,11.24,0,0,1,3.08-.59,12.71,12.71,0,0,1,7.74,1.64A9.62,9.62,0,0,1,44.23,21s6.26.45,4.14,13.15c-.07.39-.17.78-.28,1.17,1.19,0,2.4.92,1.1,5.53-1,3.59-2,4.59-2.67,4.65a15,15,0,0,1-1.87,5.12v6.09c-2.06,2.44-7.41,6.79-9.65,8.57a.23.23,0,0,0,.14.42c2.67-.23,4.48,4.24,5.07,6a.33.33,0,0,0,.59.08c2.41-3.79,6-12.14,6.43-13a106.26,106.26,0,0,1,17,11.15A6.66,6.66,0,0,1,66.65,75Zm-2.8-25.63v3.72a2.19,2.19,0,0,1-.32,1.13c1.23.91,2.47,1.87,3.7,2.88a11.11,11.11,0,0,1,4,8.62v9.28H99.21V75.46a7,7,0,0,0-4-5.66,32.57,32.57,0,0,0-5.85-2.21c-.11-.06-6.33-1.69-9.28-3.26l-.26-.16a2.19,2.19,0,0,1-1-1.84V59.48h0v-1s8.55.26,12.6-3.88c0,0-5.9-1.67-4.84-12.42S85.27,22,76.63,22.84c0,0-3.74-4.5-11.19-1.67-2.56,1-9.42,3.43-9.07,18.32s-5.29,15-5.29,15S54,58.69,63.85,58.61Z" style="" fill="currentColor"></path></svg>