<svg xmlns="http://www.w3.org/2000/svg" xmlns:xlink="http://www.w3.org/1999/xlink" xmlns:sketch="http://www.bohemiancoding.com/sketch/ns" viewBox="0 0 95 95" version="1.1" x="0px" y="0px" style="max-width:100%" height="20px"><title style="" fill="currentColor">done</title><desc style="" fill="currentColor">Created with Sketch.</desc><g stroke="currentColor" stroke-width="0" fill="none" fill-rule="evenodd" sketch:type="MSPage" style=""><path d="M47.5,95 C73.7335256,95 95,73.7335256 95,47.5 C95,21.2664744 73.7335256,0 47.5,0 C21.2664744,0 0,21.2664744 0,47.5 C0,73.7335256 21.2664744,95 47.5,95 Z M47.5,87.0833333 C69.3612713,87.0833333 87.0833333,69.3612713 87.0833333,47.5 C87.0833333,25.6387287 69.3612713,7.91666667 47.5,7.91666667 C25.6387287,7.91666667 7.91666667,25.6387287 7.91666667,47.5 C7.91666667,69.3612713 25.6387287,87.0833333 47.5,87.0833333 Z M31.870091,46.9992306 C34.1830135,44.3679436 37.6323813,46.7387691 37.6323813,46.7387691 L42.6060053,51.4038686 L56.0407124,38.6766182 C56.0407124,38.6766182 58.6468256,35.8796436 61.6605117,38.4652204 C64.6741979,41.0507971 62.0939382,43.5590614 62.0939382,43.5590614 L42.7835337,61.4831798 L31.7663391,52.4529229 C31.7663391,52.4529229 29.5571684,49.6305175 31.870091,46.9992306 Z" fill="#fece2f" sketch:type="MSShapeGroup" style=""></path></g></svg>
